<svg width="15" height="15" viewBox="0 0 15 15" fill="none" xmlns="http://www.w3.org/2000/svg">
<g clip-path="url(#clip0_17_60)">
<path fill-rule="evenodd" clip-rule="evenodd" d="M9.375 1.40625C9.375 1.28193 9.32561 1.1627 9.23771 1.07479C9.1498 0.986886 9.03057 0.9375 8.90625 0.9375H6.09375C5.96943 0.9375 5.8502 0.986886 5.76229 1.07479C5.67439 1.1627 5.625 1.28193 5.625 1.40625V2.34375C5.625 2.46807 5.67439 2.5873 5.76229 2.67521C5.8502 2.76311 5.96943 2.8125 6.09375 2.8125H8.90625C9.03057 2.8125 9.1498 2.76311 9.23771 2.67521C9.32561 2.5873 9.375 2.46807 9.375 2.34375V1.40625ZM4.6875 1.40625C4.6875 1.03329 4.83566 0.675604 5.09938 0.411881C5.3631 0.148158 5.72079 0 6.09375 0L8.90625 0C9.27921 0 9.6369 0.148158 9.90062 0.411881C10.1643 0.675604 10.3125 1.03329 10.3125 1.40625V2.34375C10.3125 2.71671 10.1643 3.0744 9.90062 3.33812C9.6369 3.60184 9.27921 3.75 8.90625 3.75H6.09375C5.72079 3.75 5.3631 3.60184 5.09938 3.33812C4.83566 3.0744 4.6875 2.71671 4.6875 2.34375V1.40625ZM2.8125 1.40625H3.75V2.34375C3.75 2.96535 3.99693 3.56149 4.43647 4.00103C4.87601 4.44057 5.47215 4.6875 6.09375 4.6875H8.90625C9.21404 4.6875 9.51881 4.62688 9.80316 4.50909C10.0875 4.39131 10.3459 4.21867 10.5635 4.00103C10.7812 3.78339 10.9538 3.52502 11.0716 3.24066C11.1894 2.95631 11.25 2.65154 11.25 2.34375V1.40625H12.1875C12.6848 1.40625 13.1617 1.60379 13.5133 1.95542C13.865 2.30706 14.0625 2.78397 14.0625 3.28125V13.125C14.0625 13.6223 13.865 14.0992 13.5133 14.4508C13.1617 14.8025 12.6848 15 12.1875 15H2.8125C2.31522 15 1.83831 14.8025 1.48667 14.4508C1.13504 14.0992 0.9375 13.6223 0.9375 13.125V3.28125C0.9375 2.78397 1.13504 2.30706 1.48667 1.95542C1.83831 1.60379 2.31522 1.40625 2.8125 1.40625Z" fill="#F3F4F6"/>
</g>
<defs>
<clipPath id="clip0_17_60">
<rect width="15" height="15" fill="white"/>
</clipPath>
</defs>
</svg>
