<svg width="15" height="15" viewBox="0 0 15 15" fill="none" xmlns="http://www.w3.org/2000/svg">
<path d="M14.6002 2.27434C14.7252 2.15333 14.8249 2.00856 14.8935 1.84847C14.9622 1.68839 14.9984 1.51619 14.9999 1.34193C15.0015 1.16767 14.9685 0.994837 14.9028 0.833516C14.8371 0.672195 14.74 0.525616 14.6172 0.402333C14.4945 0.279049 14.3484 0.18153 14.1877 0.115465C14.0269 0.0493993 13.8547 0.0161117 13.681 0.0175433C13.5072 0.0189748 13.3355 0.0550971 13.1759 0.123803C13.0162 0.192508 12.8718 0.292421 12.7511 0.417712L7.50741 5.67611L2.26547 0.417712C2.1457 0.288769 2.00126 0.185347 1.84078 0.113615C1.68029 0.0418844 1.50705 0.00331341 1.33138 0.000204246C1.15572 -0.00290492 0.981226 0.0295115 0.818319 0.0955188C0.655412 0.161526 0.507428 0.259773 0.383194 0.384397C0.258959 0.509022 0.16102 0.65747 0.0952197 0.820888C0.0294191 0.984307 -0.00289582 1.15935 0.000203607 1.33557C0.00330304 1.51178 0.0417532 1.68557 0.11326 1.84656C0.184766 2.00755 0.287864 2.15244 0.416404 2.27259L5.65485 7.53274L0.412915 12.7911C0.181817 13.0399 0.0560043 13.369 0.0619845 13.709C0.0679647 14.049 0.205271 14.3734 0.444974 14.6139C0.684678 14.8543 1.00806 14.992 1.347 14.998C1.68594 15.004 2.01397 14.8778 2.26198 14.646L7.50741 9.38761L12.7493 14.6478C12.9974 14.8796 13.3254 15.0058 13.6643 14.9998C14.0033 14.9938 14.3266 14.8561 14.5663 14.6156C14.8061 14.3751 14.9434 14.0507 14.9493 13.7107C14.9553 13.3707 14.8295 13.0417 14.5984 12.7929L9.35997 7.53274L14.6002 2.27434Z" fill="#E5EDFF"/>
</svg>
