<svg width="41" height="40" viewBox="0 0 41 40" fill="none" xmlns="http://www.w3.org/2000/svg">
<path d="M20.5 35C17 35 13.9028 33.9372 11.2083 31.8117C8.5139 29.6861 6.76389 26.9711 5.95834 23.6667C5.84723 23.25 5.93056 22.8683 6.20834 22.5217C6.48612 22.175 6.86112 21.9733 7.33334 21.9167C7.77778 21.8611 8.18056 21.9444 8.54167 22.1667C8.90278 22.3889 9.15278 22.7222 9.29167 23.1667C9.95834 25.6667 11.3333 27.7083 13.4167 29.2917C15.5 30.875 17.8611 31.6667 20.5 31.6667C23.75 31.6667 26.5072 30.5344 28.7717 28.27C31.0361 26.0056 32.1678 23.2489 32.1667 20C32.1667 16.75 31.0345 13.9928 28.77 11.7283C26.5056 9.46389 23.7489 8.33222 20.5 8.33333C18.5833 8.33333 16.7917 8.77778 15.125 9.66667C13.4583 10.5556 12.0556 11.7778 10.9167 13.3333H13.8333C14.3056 13.3333 14.7017 13.4933 15.0217 13.8133C15.3417 14.1333 15.5011 14.5289 15.5 15C15.5 15.4722 15.34 15.8683 15.02 16.1883C14.7 16.5083 14.3045 16.6678 13.8333 16.6667H7.16667C6.69445 16.6667 6.29834 16.5067 5.97834 16.1867C5.65834 15.8667 5.49889 15.4711 5.50001 15V8.33333C5.50001 7.86111 5.66001 7.465 5.98001 7.145C6.30001 6.825 6.69556 6.66556 7.16667 6.66667C7.63889 6.66667 8.03501 6.82667 8.35501 7.14667C8.67501 7.46667 8.83445 7.86222 8.83334 8.33333V10.5833C10.25 8.80556 11.9794 7.43056 14.0217 6.45833C16.0639 5.48611 18.2233 5 20.5 5C22.5833 5 24.535 5.39611 26.355 6.18833C28.175 6.98056 29.7583 8.04944 31.105 9.395C32.4517 10.7428 33.5211 12.3261 34.3133 14.145C35.1056 15.9639 35.5011 17.9156 35.5 20C35.5 22.0833 35.1039 24.035 34.3117 25.855C33.5195 27.675 32.4506 29.2583 31.105 30.605C29.7572 31.9517 28.1739 33.0211 26.355 33.8133C24.5361 34.6056 22.5844 35.0011 20.5 35ZM22.1667 19.3333L26.3333 23.5C26.6389 23.8056 26.7917 24.1944 26.7917 24.6667C26.7917 25.1389 26.6389 25.5278 26.3333 25.8333C26.0278 26.1389 25.6389 26.2917 25.1667 26.2917C24.6945 26.2917 24.3056 26.1389 24 25.8333L19.3333 21.1667C19.1667 21 19.0417 20.8128 18.9583 20.605C18.875 20.3972 18.8333 20.1817 18.8333 19.9583V13.3333C18.8333 12.8611 18.9933 12.465 19.3133 12.145C19.6333 11.825 20.0289 11.6656 20.5 11.6667C20.9722 11.6667 21.3683 11.8267 21.6883 12.1467C22.0083 12.4667 22.1678 12.8622 22.1667 13.3333V19.3333Z" fill="#F3F4F6"/>
</svg>
