<svg width="39" height="35" viewBox="0 0 39 35" fill="none" xmlns="http://www.w3.org/2000/svg">
<g filter="url(#filter0_d_1_642)">
<path d="M19.5 30C16 30 12.9028 28.9372 10.2083 26.8117C7.5139 24.6861 5.76389 21.9711 4.95834 18.6667C4.84723 18.25 4.93056 17.8683 5.20834 17.5217C5.48612 17.175 5.86112 16.9733 6.33334 16.9167C6.77778 16.8611 7.18056 16.9444 7.54167 17.1667C7.90278 17.3889 8.15278 17.7222 8.29167 18.1667C8.95834 20.6667 10.3333 22.7083 12.4167 24.2917C14.5 25.875 16.8611 26.6667 19.5 26.6667C22.75 26.6667 25.5072 25.5344 27.7717 23.27C30.0361 21.0056 31.1678 18.2489 31.1667 15C31.1667 11.75 30.0345 8.99278 27.77 6.72833C25.5056 4.46389 22.7489 3.33222 19.5 3.33333C17.5833 3.33333 15.7917 3.77778 14.125 4.66667C12.4583 5.55556 11.0556 6.77778 9.91667 8.33333H12.8333C13.3056 8.33333 13.7017 8.49333 14.0217 8.81333C14.3417 9.13333 14.5011 9.52889 14.5 10C14.5 10.4722 14.34 10.8683 14.02 11.1883C13.7 11.5083 13.3045 11.6678 12.8333 11.6667H6.16667C5.69445 11.6667 5.29834 11.5067 4.97834 11.1867C4.65834 10.8667 4.49889 10.4711 4.50001 10V3.33333C4.50001 2.86111 4.66001 2.465 4.98001 2.145C5.30001 1.825 5.69556 1.66556 6.16667 1.66667C6.63889 1.66667 7.03501 1.82667 7.35501 2.14667C7.67501 2.46667 7.83445 2.86222 7.83334 3.33333V5.58333C9.25001 3.80556 10.9794 2.43056 13.0217 1.45833C15.0639 0.486111 17.2233 0 19.5 0C21.5833 0 23.535 0.396111 25.355 1.18833C27.175 1.98056 28.7583 3.04944 30.105 4.395C31.4517 5.74278 32.5211 7.32611 33.3133 9.145C34.1056 10.9639 34.5011 12.9156 34.5 15C34.5 17.0833 34.1039 19.035 33.3117 20.855C32.5195 22.675 31.4506 24.2583 30.105 25.605C28.7572 26.9517 27.1739 28.0211 25.355 28.8133C23.5361 29.6056 21.5844 30.0011 19.5 30ZM21.1667 14.3333L25.3333 18.5C25.6389 18.8056 25.7917 19.1944 25.7917 19.6667C25.7917 20.1389 25.6389 20.5278 25.3333 20.8333C25.0278 21.1389 24.6389 21.2917 24.1667 21.2917C23.6945 21.2917 23.3056 21.1389 23 20.8333L18.3333 16.1667C18.1667 16 18.0417 15.8128 17.9583 15.605C17.875 15.3972 17.8333 15.1817 17.8333 14.9583V8.33333C17.8333 7.86111 17.9933 7.465 18.3133 7.145C18.6333 6.825 19.0289 6.66556 19.5 6.66667C19.9722 6.66667 20.3683 6.82667 20.6883 7.14667C21.0083 7.46667 21.1678 7.86222 21.1667 8.33333V14.3333Z" fill="#F3F4F6"/>
</g>
<defs>
<filter id="filter0_d_1_642" x="0.5" y="0" width="38" height="38" filterUnits="userSpaceOnUse" color-interpolation-filters="sRGB">
<feFlood flood-opacity="0" result="BackgroundImageFix"/>
<feColorMatrix in="SourceAlpha" type="matrix" values="0 0 0 0 0 0 0 0 0 0 0 0 0 0 0 0 0 0 127 0" result="hardAlpha"/>
<feOffset dy="4"/>
<feGaussianBlur stdDeviation="2"/>
<feComposite in2="hardAlpha" operator="out"/>
<feColorMatrix type="matrix" values="0 0 0 0 0 0 0 0 0 0 0 0 0 0 0 0 0 0 0.25 0"/>
<feBlend mode="normal" in2="BackgroundImageFix" result="effect1_dropShadow_1_642"/>
<feBlend mode="normal" in="SourceGraphic" in2="effect1_dropShadow_1_642" result="shape"/>
</filter>
</defs>
</svg>
