<svg width="32" height="32" viewBox="0 0 32 32" fill="none" xmlns="http://www.w3.org/2000/svg">
<g filter="url(#filter0_d_1_9)">
<path d="M26 13.6633H17.6667V21.9967C17.6667 22.4387 17.4911 22.8626 17.1785 23.1752C16.8659 23.4877 16.442 23.6633 16 23.6633C15.558 23.6633 15.134 23.4877 14.8215 23.1752C14.5089 22.8626 14.3333 22.4387 14.3333 21.9967V13.6633H5.99999C5.55797 13.6633 5.13404 13.4877 4.82148 13.1752C4.50892 12.8626 4.33333 12.4387 4.33333 11.9967C4.33333 11.5546 4.50892 11.1307 4.82148 10.8181C5.13404 10.5056 5.55797 10.33 5.99999 10.33H14.3333V1.99665C14.3333 1.55463 14.5089 1.1307 14.8215 0.818141C15.134 0.505581 15.558 0.329987 16 0.329987C16.442 0.329987 16.8659 0.505581 17.1785 0.818141C17.4911 1.1307 17.6667 1.55463 17.6667 1.99665V10.33H26C26.442 10.33 26.8659 10.5056 27.1785 10.8181C27.4911 11.1307 27.6667 11.5546 27.6667 11.9967C27.6667 12.4387 27.4911 12.8626 27.1785 13.1752C26.8659 13.4877 26.442 13.6633 26 13.6633Z" fill="#E5EDFF"/>
</g>
<defs>
<filter id="filter0_d_1_9" x="0.333328" y="0.329987" width="31.3333" height="31.3333" filterUnits="userSpaceOnUse" color-interpolation-filters="sRGB">
<feFlood flood-opacity="0" result="BackgroundImageFix"/>
<feColorMatrix in="SourceAlpha" type="matrix" values="0 0 0 0 0 0 0 0 0 0 0 0 0 0 0 0 0 0 127 0" result="hardAlpha"/>
<feOffset dy="4"/>
<feGaussianBlur stdDeviation="2"/>
<feComposite in2="hardAlpha" operator="out"/>
<feColorMatrix type="matrix" values="0 0 0 0 0 0 0 0 0 0 0 0 0 0 0 0 0 0 0.25 0"/>
<feBlend mode="normal" in2="BackgroundImageFix" result="effect1_dropShadow_1_9"/>
<feBlend mode="normal" in="SourceGraphic" in2="effect1_dropShadow_1_9" result="shape"/>
</filter>
</defs>
</svg>
