<svg width="40" height="40" viewBox="0 0 40 40" fill="none" xmlns="http://www.w3.org/2000/svg">
<path d="M30 21.6633H21.6667V29.9966C21.6667 30.4387 21.4911 30.8626 21.1785 31.1751C20.866 31.4877 20.442 31.6633 20 31.6633C19.558 31.6633 19.1341 31.4877 18.8215 31.1751C18.5089 30.8626 18.3333 30.4387 18.3333 29.9966V21.6633H10C9.55798 21.6633 9.13406 21.4877 8.8215 21.1751C8.50894 20.8626 8.33334 20.4387 8.33334 19.9966C8.33334 19.5546 8.50894 19.1307 8.8215 18.8181C9.13406 18.5056 9.55798 18.33 10 18.33H18.3333V9.99662C18.3333 9.5546 18.5089 9.13067 18.8215 8.81811C19.1341 8.50555 19.558 8.32996 20 8.32996C20.442 8.32996 20.866 8.50555 21.1785 8.81811C21.4911 9.13067 21.6667 9.5546 21.6667 9.99662V18.33H30C30.442 18.33 30.866 18.5056 31.1785 18.8181C31.4911 19.1307 31.6667 19.5546 31.6667 19.9966C31.6667 20.4387 31.4911 20.8626 31.1785 21.1751C30.866 21.4877 30.442 21.6633 30 21.6633Z" fill="#E5EDFF"/>
</svg>
