<svg width="41" height="40" viewBox="0 0 41 40" fill="none" xmlns="http://www.w3.org/2000/svg">
<path d="M20.5417 26.6667C19.875 26.6667 19.3128 26.4306 18.855 25.9583C18.3972 25.4861 18.1956 24.9306 18.25 24.2917C18.3333 23.125 18.6111 22.1111 19.0833 21.25C19.5556 20.3889 20.3056 19.5 21.3333 18.5833C22.4722 17.5833 23.3406 16.715 23.9383 15.9783C24.5361 15.2417 24.8344 14.4017 24.8333 13.4583C24.8333 12.3194 24.4517 11.375 23.6883 10.625C22.925 9.875 21.8622 9.5 20.5 9.5C19.6111 9.5 18.8539 9.68778 18.2283 10.0633C17.6028 10.4389 17.0961 10.9039 16.7083 11.4583C16.3194 12.0139 15.8406 12.3889 15.2717 12.5833C14.7028 12.7778 14.1539 12.7639 13.625 12.5417C12.9861 12.2639 12.5489 11.8056 12.3133 11.1667C12.0778 10.5278 12.1261 9.93056 12.4583 9.375C13.2639 8.125 14.3472 7.08333 15.7083 6.25C17.0694 5.41667 18.6667 5 20.5 5C23.4167 5 25.66 5.81222 27.23 7.43667C28.8 9.06111 29.5844 11.0128 29.5833 13.2917C29.5833 14.6806 29.285 15.8683 28.6883 16.855C28.0917 17.8417 27.1539 18.9594 25.875 20.2083C24.9306 21.0972 24.2639 21.8194 23.875 22.375C23.4861 22.9306 23.2222 23.5694 23.0833 24.2917C22.9722 24.9861 22.6806 25.5556 22.2083 26C21.7361 26.4444 21.1806 26.6667 20.5417 26.6667ZM20.5 36.6667C19.5833 36.6667 18.7983 36.34 18.145 35.6867C17.4917 35.0333 17.1656 34.2489 17.1667 33.3333C17.1667 32.4167 17.4933 31.6317 18.1467 30.9783C18.8 30.325 19.5844 29.9989 20.5 30C21.4167 30 22.2017 30.3267 22.855 30.98C23.5083 31.6333 23.8344 32.4178 23.8333 33.3333C23.8333 34.25 23.5067 35.035 22.8533 35.6883C22.2 36.3417 21.4156 36.6678 20.5 36.6667Z" fill="#F3F4F6"/>
</svg>
