<svg width="26" height="35" viewBox="0 0 26 35" fill="none" xmlns="http://www.w3.org/2000/svg">
<g filter="url(#filter0_d_1_654)">
<path d="M12.5417 21.6667C11.875 21.6667 11.3128 21.4306 10.855 20.9583C10.3972 20.4861 10.1956 19.9306 10.25 19.2917C10.3333 18.125 10.6111 17.1111 11.0833 16.25C11.5556 15.3889 12.3056 14.5 13.3333 13.5833C14.4722 12.5833 15.3406 11.715 15.9383 10.9783C16.5361 10.2417 16.8344 9.40167 16.8333 8.45833C16.8333 7.31944 16.4517 6.375 15.6883 5.625C14.925 4.875 13.8622 4.5 12.5 4.5C11.6111 4.5 10.8539 4.68778 10.2283 5.06333C9.60278 5.43889 9.09611 5.90389 8.70834 6.45833C8.31945 7.01389 7.84056 7.38889 7.27167 7.58333C6.70278 7.77778 6.15389 7.76389 5.625 7.54167C4.98611 7.26389 4.54889 6.80555 4.31334 6.16667C4.07778 5.52778 4.12611 4.93056 4.45834 4.375C5.26389 3.125 6.34723 2.08333 7.70834 1.25C9.06945 0.416667 10.6667 0 12.5 0C15.4167 0 17.66 0.812222 19.23 2.43667C20.8 4.06111 21.5844 6.01278 21.5833 8.29167C21.5833 9.68056 21.285 10.8683 20.6883 11.855C20.0917 12.8417 19.1539 13.9594 17.875 15.2083C16.9306 16.0972 16.2639 16.8194 15.875 17.375C15.4861 17.9306 15.2222 18.5694 15.0833 19.2917C14.9722 19.9861 14.6806 20.5556 14.2083 21C13.7361 21.4444 13.1806 21.6667 12.5417 21.6667ZM12.5 31.6667C11.5833 31.6667 10.7983 31.34 10.145 30.6867C9.49167 30.0333 9.16556 29.2489 9.16667 28.3333C9.16667 27.4167 9.49334 26.6317 10.1467 25.9783C10.8 25.325 11.5844 24.9989 12.5 25C13.4167 25 14.2017 25.3267 14.855 25.98C15.5083 26.6333 15.8344 27.4178 15.8333 28.3333C15.8333 29.25 15.5067 30.035 14.8533 30.6883C14.2 31.3417 13.4156 31.6678 12.5 31.6667Z" fill="#F3F4F6"/>
</g>
<defs>
<filter id="filter0_d_1_654" x="0.166748" y="0" width="25.4166" height="39.6667" filterUnits="userSpaceOnUse" color-interpolation-filters="sRGB">
<feFlood flood-opacity="0" result="BackgroundImageFix"/>
<feColorMatrix in="SourceAlpha" type="matrix" values="0 0 0 0 0 0 0 0 0 0 0 0 0 0 0 0 0 0 127 0" result="hardAlpha"/>
<feOffset dy="4"/>
<feGaussianBlur stdDeviation="2"/>
<feComposite in2="hardAlpha" operator="out"/>
<feColorMatrix type="matrix" values="0 0 0 0 0 0 0 0 0 0 0 0 0 0 0 0 0 0 0.25 0"/>
<feBlend mode="normal" in2="BackgroundImageFix" result="effect1_dropShadow_1_654"/>
<feBlend mode="normal" in="SourceGraphic" in2="effect1_dropShadow_1_654" result="shape"/>
</filter>
</defs>
</svg>
