<svg width="41" height="40" viewBox="0 0 41 40" fill="none" xmlns="http://www.w3.org/2000/svg">
<path d="M15.9167 36.6667L15.25 31.3334C14.8889 31.1945 14.5483 31.0278 14.2283 30.8334C13.9083 30.6389 13.5961 30.4306 13.2917 30.2084L8.33333 32.2917L3.75 24.375L8.04167 21.125C8.01389 20.9306 8 20.7428 8 20.5617V19.4384C8 19.2573 8.01389 19.0695 8.04167 18.875L3.75 15.625L8.33333 7.70837L13.2917 9.79171C13.5972 9.56948 13.9167 9.36115 14.25 9.16671C14.5833 8.97226 14.9167 8.8056 15.25 8.66671L15.9167 3.33337H25.0833L25.75 8.66671C26.1111 8.8056 26.4517 8.97226 26.7717 9.16671C27.0917 9.36115 27.4039 9.56948 27.7083 9.79171L32.6667 7.70837L37.25 15.625L32.9583 18.875C32.9861 19.0695 33 19.2573 33 19.4384V20.5617C33 20.7428 32.9722 20.9306 32.9167 21.125L37.2083 24.375L32.625 32.2917L27.7083 30.2084C27.4028 30.4306 27.0833 30.6389 26.75 30.8334C26.4167 31.0278 26.0833 31.1945 25.75 31.3334L25.0833 36.6667H15.9167ZM20.5833 25.8334C22.1944 25.8334 23.5694 25.2639 24.7083 24.125C25.8472 22.9862 26.4167 21.6112 26.4167 20C26.4167 18.3889 25.8472 17.0139 24.7083 15.875C23.5694 14.7362 22.1944 14.1667 20.5833 14.1667C18.9444 14.1667 17.5622 14.7362 16.4367 15.875C15.3111 17.0139 14.7489 18.3889 14.75 20C14.75 21.6112 15.3122 22.9862 16.4367 24.125C17.5611 25.2639 18.9433 25.8334 20.5833 25.8334Z" fill="#F3F4F6"/>
</svg>
