<svg width="41" height="37" viewBox="0 0 41 37" fill="none" xmlns="http://www.w3.org/2000/svg">
<g filter="url(#filter0_d_1_22)">
<path d="M15.9167 33.6667L15.25 28.3333C14.8889 28.1945 14.5483 28.0278 14.2283 27.8333C13.9083 27.6389 13.5961 27.4306 13.2917 27.2083L8.33333 29.2917L3.75 21.375L8.04167 18.125C8.01389 17.9306 8 17.7428 8 17.5617V16.4383C8 16.2572 8.01389 16.0695 8.04167 15.875L3.75 12.625L8.33333 4.70834L13.2917 6.79168C13.5972 6.56945 13.9167 6.36112 14.25 6.16668C14.5833 5.97223 14.9167 5.80557 15.25 5.66668L15.9167 0.333344H25.0833L25.75 5.66668C26.1111 5.80557 26.4517 5.97223 26.7717 6.16668C27.0917 6.36112 27.4039 6.56945 27.7083 6.79168L32.6667 4.70834L37.25 12.625L32.9583 15.875C32.9861 16.0695 33 16.2572 33 16.4383V17.5617C33 17.7428 32.9722 17.9306 32.9167 18.125L37.2083 21.375L32.625 29.2917L27.7083 27.2083C27.4028 27.4306 27.0833 27.6389 26.75 27.8333C26.4167 28.0278 26.0833 28.1945 25.75 28.3333L25.0833 33.6667H15.9167ZM20.5833 22.8333C22.1944 22.8333 23.5694 22.2639 24.7083 21.125C25.8472 19.9861 26.4167 18.6111 26.4167 17C26.4167 15.3889 25.8472 14.0139 24.7083 12.875C23.5694 11.7361 22.1944 11.1667 20.5833 11.1667C18.9444 11.1667 17.5622 11.7361 16.4367 12.875C15.3111 14.0139 14.7489 15.3889 14.75 17C14.75 18.6111 15.3122 19.9861 16.4367 21.125C17.5611 22.2639 18.9433 22.8333 20.5833 22.8333Z" fill="#E5EDFF"/>
</g>
<defs>
<filter id="filter0_d_1_22" x="-0.25" y="0.333344" width="41.5" height="41.3333" filterUnits="userSpaceOnUse" color-interpolation-filters="sRGB">
<feFlood flood-opacity="0" result="BackgroundImageFix"/>
<feColorMatrix in="SourceAlpha" type="matrix" values="0 0 0 0 0 0 0 0 0 0 0 0 0 0 0 0 0 0 127 0" result="hardAlpha"/>
<feOffset dy="4"/>
<feGaussianBlur stdDeviation="2"/>
<feComposite in2="hardAlpha" operator="out"/>
<feColorMatrix type="matrix" values="0 0 0 0 0 0 0 0 0 0 0 0 0 0 0 0 0 0 0.25 0"/>
<feBlend mode="normal" in2="BackgroundImageFix" result="effect1_dropShadow_1_22"/>
<feBlend mode="normal" in="SourceGraphic" in2="effect1_dropShadow_1_22" result="shape"/>
</filter>
</defs>
</svg>
