<svg width="40" height="40" viewBox="0 0 40 40" fill="none" xmlns="http://www.w3.org/2000/svg">
<path d="M21.8667 28.3717L14.8684 24.555C13.9547 25.5318 12.7683 26.2111 11.4635 26.5048C10.1586 26.7985 8.7956 26.6929 7.55155 26.2017C6.3075 25.7106 5.23995 24.8566 4.48763 23.7507C3.73531 22.6449 3.33301 21.3383 3.33301 20.0008C3.33301 18.6633 3.73531 17.3568 4.48763 16.2509C5.23995 15.1451 6.3075 14.2911 7.55155 13.7999C8.7956 13.3088 10.1586 13.2032 11.4635 13.4969C12.7683 13.7905 13.9547 14.4699 14.8684 15.4467L21.8684 11.63C21.4715 10.0566 21.6622 8.3925 22.4045 6.94961C23.1469 5.50673 24.3901 4.38414 25.9009 3.79228C27.4118 3.20042 29.0867 3.17992 30.6116 3.73463C32.1365 4.28933 33.4067 5.38116 34.1842 6.80544C34.9617 8.22972 35.193 9.88866 34.8348 11.4713C34.4766 13.0539 33.5535 14.4516 32.2385 15.4023C30.9235 16.353 29.3069 16.7914 27.6917 16.6354C26.0766 16.4795 24.5738 15.7398 23.465 14.555L16.465 18.3717C16.7337 19.4406 16.7337 20.5594 16.465 21.6283L23.465 25.445C24.5744 24.2608 26.0775 23.5219 27.6927 23.3667C29.3079 23.2115 30.9242 23.6507 32.2387 24.602C33.5533 25.5533 34.4757 26.9513 34.8332 28.5341C35.1907 30.1169 34.9586 31.7757 34.1805 33.1996C33.4024 34.6235 32.1318 35.7147 30.6067 36.2688C29.0815 36.8228 27.4067 36.8016 25.8961 36.2092C24.3855 35.6167 23.1429 34.4936 22.4011 33.0505C21.6593 31.6074 21.4693 29.9432 21.8667 28.37V28.3717ZM10 23.3333C10.8841 23.3333 11.7319 22.9821 12.357 22.357C12.9822 21.7319 13.3334 20.8841 13.3334 20C13.3334 19.1159 12.9822 18.2681 12.357 17.643C11.7319 17.0179 10.8841 16.6667 10 16.6667C9.11596 16.6667 8.26812 17.0179 7.64299 17.643C7.01787 18.2681 6.66668 19.1159 6.66668 20C6.66668 20.8841 7.01787 21.7319 7.64299 22.357C8.26812 22.9821 9.11596 23.3333 10 23.3333ZM28.3334 13.3333C29.2174 13.3333 30.0653 12.9821 30.6904 12.357C31.3155 11.7319 31.6667 10.8841 31.6667 10C31.6667 9.11594 31.3155 8.2681 30.6904 7.64298C30.0653 7.01786 29.2174 6.66667 28.3334 6.66667C27.4493 6.66667 26.6014 7.01786 25.9763 7.64298C25.3512 8.2681 25 9.11594 25 10C25 10.8841 25.3512 11.7319 25.9763 12.357C26.6014 12.9821 27.4493 13.3333 28.3334 13.3333ZM28.3334 33.3333C29.2174 33.3333 30.0653 32.9821 30.6904 32.357C31.3155 31.7319 31.6667 30.8841 31.6667 30C31.6667 29.1159 31.3155 28.2681 30.6904 27.643C30.0653 27.0179 29.2174 26.6667 28.3334 26.6667C27.4493 26.6667 26.6014 27.0179 25.9763 27.643C25.3512 28.2681 25 29.1159 25 30C25 30.8841 25.3512 31.7319 25.9763 32.357C26.6014 32.9821 27.4493 33.3333 28.3334 33.3333Z" fill="#E5EDFF"/>
</svg>
