<svg width="25" height="25" viewBox="0 0 25 25" fill="none" xmlns="http://www.w3.org/2000/svg">
<path d="M1.0415 14.4344V10.5656C1.0415 10.0131 1.261 9.48319 1.6517 9.09249C2.0424 8.70178 2.5723 8.48229 3.12484 8.48229H6.14567C6.34934 8.48224 6.54852 8.42249 6.71859 8.31042L12.9686 4.18958C13.1256 4.08617 13.3077 4.02719 13.4956 4.01889C13.6834 4.0106 13.87 4.05331 14.0355 4.14248C14.2011 4.23166 14.3394 4.36398 14.4358 4.52541C14.5322 4.68683 14.5831 4.87135 14.5832 5.05937V19.9406C14.5831 20.1287 14.5322 20.3132 14.4358 20.4746C14.3394 20.636 14.2011 20.7683 14.0355 20.8575C13.87 20.9467 13.6834 20.9894 13.4956 20.9811C13.3077 20.9728 13.1256 20.9138 12.9686 20.8104L6.71859 16.6896C6.54852 16.5775 6.34934 16.5178 6.14567 16.5177H3.12484C2.5723 16.5177 2.0424 16.2982 1.6517 15.9075C1.261 15.5168 1.0415 14.9869 1.0415 14.4344Z" stroke="#F3F4F6" stroke-width="1.5625"/>
<path d="M18.229 7.8125C18.229 7.8125 19.7915 9.375 19.7915 11.9792C19.7915 14.5833 18.229 16.1458 18.229 16.1458M21.354 4.6875C21.354 4.6875 23.9582 7.29167 23.9582 11.9792C23.9582 16.6667 21.354 19.2708 21.354 19.2708" stroke="#F3F4F6" stroke-width="1.5625" stroke-linecap="round" stroke-linejoin="round"/>
</svg>
