<svg width="40" height="40" viewBox="0 0 40 40" fill="none" xmlns="http://www.w3.org/2000/svg">
<path d="M36.6039 18.4398H37.9688V21.5602H36.6039V18.4398ZM33.9144 22.4737H35.2792V17.5263H33.9144V22.4737ZM31.27 25.0328H32.6348V14.9672H31.27V25.0328ZM28.7562 27.0075H30.121V13.0846H28.7562V27.0041V27.0075ZM26.0649 23.6074H27.4298V16.3926H26.0649V23.6074ZM23.331 29.0667H24.6959V10.6245H23.3267V29.0667H23.331ZM20.6406 31.7109H22.0055V8.28906H20.6406V31.7109ZM17.9963 28.095H19.3611V11.9049H17.9963V28.0951V28.095ZM15.2606 23.4973H16.6255V16.6731H15.2606V23.4973ZM12.6163 21.8705H13.9812V18.1234H12.6163V21.8767V21.8705ZM9.97195 23.8752H11.3368V16.1221H9.97195V23.8777V23.8752ZM7.37023 27.6284H8.73508V11.928H7.37031V27.6311L7.37023 27.6284ZM4.72594 25.2298H6.09078V14.6354H4.72594V25.2324V25.2298ZM2.03125 22.4737H3.39609V17.5263H2.03125V22.4737Z" fill="#F3F4F6"/>
</svg>
